PathFileType	4	(X/Y/Z)	/Users/itak/Documents/Research/Walk-IL/dataset/trc/00414_00012.trc
DataRate	CameraRate	NumFrames	NumMarkers	Units	OrigDataRate	OrigDataStartFrame	OrigNumFrames
100.000000	100.000000	4	53	mm	100.000000	378	433
Frame#	Time	RPSI			LPSI			L3			STRN			T10			C7			CLAV			RBAK			LBAK			LSHO			LUPA			LAEL			LAOL			LWTS			LWPS			LFRA			LIFD			LHPS			LHTS			RSHO			RUPA			RAEL			RAOL			RWTS			RWPS			RFRA			RIFD			RHTS			RHPS			RBHD			LFHD			RFHD			LBHD			LHIP			RHIP			RASI			LASI			LKNE			LTHI			LANK			LTIP			LTOE			LMT1			LMT5			LHEE			RKNE			RTHI			RANK			RTIP			RTOE			RMT1			RMT5			RHEE			
		X1	Y1	Z1	X2	Y2	Z2	X3	Y3	Z3	X4	Y4	Z4	X5	Y5	Z5	X6	Y6	Z6	X7	Y7	Z7	X8	Y8	Z8	X9	Y9	Z9	X10	Y10	Z10	X11	Y11	Z11	X12	Y12	Z12	X13	Y13	Z13	X14	Y14	Z14	X15	Y15	Z15	X16	Y16	Z16	X17	Y17	Z17	X18	Y18	Z18	X19	Y19	Z19	X20	Y20	Z20	X21	Y21	Z21	X22	Y22	Z22	X23	Y23	Z23	X24	Y24	Z24	X25	Y25	Z25	X26	Y26	Z26	X27	Y27	Z27	X28	Y28	Z28	X29	Y29	Z29	X30	Y30	Z30	X31	Y31	Z31	X32	Y32	Z32	X33	Y33	Z33	X34	Y34	Z34	X35	Y35	Z35	X36	Y36	Z36	X37	Y37	Z37	X38	Y38	Z38	X39	Y39	Z39	X40	Y40	Z40	X41	Y41	Z41	X42	Y42	Z42	X43	Y43	Z43	X44	Y44	Z44	X45	Y45	Z45	X46	Y46	Z46	X47	Y47	Z47	X48	Y48	Z48	X49	Y49	Z49	X50	Y50	Z50	X51	Y51	Z51	X52	Y52	Z52	X53	Y53	Z53	

379	3.78	273.5581970214844	980.1879272460938	837.0726928710938	405.2379150390625	972.4177856445312	829.1976928710938	338.0385437011719	1051.761108398438	830.835205078125	339.9980163574219	1218.664794921875	1065.097412109375	342.1576843261719	1155.417358398438	815.25830078125	349.2716979980469	1406.21728515625	843.73486328125	340.3236999511719	1333.796142578125	1003.615783691406	282.666259765625	1260.003051757812	803.0797119140625	452.7852783203125	1369.373779296875	833.8193969726562	499.2438354492188	1389.022827148438	921.4017333984375	571.4124145507812	1273.593139648438	901.5492553710938	608.475341796875	1082.277709960938	922.7041015625	543.683349609375	1051.926635742188	873.6646728515625	599.7116088867188	913.54833984375	1077.117309570312	657.1366577148438	885.8986206054688	1024.84130859375	629.9681396484375	990.7426147460938	960.01416015625	624.1249389648438	747.0287475585938	1139.840454101562	661.377197265625	812.1329345703125	1070.31494140625	631.9886474609375	831.6751098632812	1124.222778320312	190.3856201171875	1388.109741210938	897.75830078125	134.9739379882812	1323.453125	879.6973876953125	102.0351028442383	1062.192138671875	866.3444213867188	196.8367156982422	1053.95556640625	861.6552734375	107.1541213989258	849.13427734375	999.7421264648438	55.76674270629883	836.794189453125	946.3755493164062	81.53660583496094	996.8656005859375	887.25390625	104.1209259033203	674.2222290039062	995.648193359375	84.82344055175781	744.0244140625	1013.029113769531	53.72259140014648	749.312744140625	950.9658813476562	248.8820343017578	1593.678344726562	922.740966796875	439.6739196777344	1609.408935546875	973.0859375	329.8623046875	1616.774291992188	1026.956420898438	384.62646484375	1579.927124023438	837.413330078125	520.7941284179688	965.3245849609375	914.171142578125	160.1152954101562	960.681396484375	932.337158203125	222.9392700195312	974.2562255859375	1057.538940429688	485.0668029785156	969.3120727539062	1031.29345703125	492.2222900390625	474.3403015136719	986.1925659179688	506.9642944335938	616.6101684570312	973.0181884765625	458.4854125976562	43.11154174804688	879.6700439453125	485.7484741210938	242.9178771972656	935.751220703125	392.4364624023438	37.72035598754883	1095.041381835938	363.33544921875	41.18740081787109	1012.310729980469	467.83154296875	42.02841186523438	1006.105712890625	404.5508728027344	37.59328079223633	839.34619140625	198.7143096923828	471.8997497558594	1009.119689941406	167.4020690917969	738.2543334960938	1021.561401367188	227.7242126464844	53.91508865356445	926.6873779296875	212.4286041259766	344.59521484375	1010.747314453125	285.0247802734375	40.19435882568359	1108.362548828125	318.6138000488281	44.43048858642578	1033.841430664062	219.1535949707031	45.35132217407227	1011.721862792969	283.5312194824219	41.6131477355957	856.1754150390625	
380	3.79	273.3381958007812	980.547607421875	838.2987060546875	404.9296569824219	972.6831665039062	830.4561157226562	337.778564453125	1052.258422851562	831.9818115234375	339.5805358886719	1218.82763671875	1066.485473632812	342.0628967285156	1155.849975585938	816.87158203125	349.0816650390625	1406.631469726562	845.4012451171875	340.0818786621094	1334.00341796875	1005.160522460938	282.3218994140625	1260.513305664062	804.5699462890625	452.5837097167969	1369.750854492188	835.4710083007812	499.0158081054688	1389.217895507812	923.0939331054688	571.0946655273438	1273.775390625	903.0729370117188	607.5892333984375	1082.090576171875	923.5782470703125	542.8370971679688	1052.345947265625	874.2462158203125	597.8348999023438	910.6671752929688	1075.498046875	655.1856689453125	883.56396484375	1022.766662597656	628.5885009765625	989.7100830078125	959.7838134765625	620.5028686523438	742.6725463867188	1134.951293945312	658.5870361328125	808.8037109375	1066.794067382812	629.2551879882812	827.5299682617188	1121.06201171875	190.2151031494141	1388.703857421875	899.4232177734375	134.5880126953125	1324.169799804688	881.4409790039062	100.8270416259766	1063.007202148438	868.4065551757812	195.5339508056641	1054.486083984375	863.2018432617188	106.0770721435547	850.7477416992188	1002.995971679688	54.43547821044922	838.1422119140625	950.1527099609375	80.31654357910156	997.758056640625	889.721923828125	102.5930633544922	675.9671020507812	1000.579467773438	83.80308532714844	746.1885375976562	1017.47021484375	52.13799667358398	750.7402954101562	955.4620361328125	248.8519439697266	1594.043579101562	924.6663208007812	439.6789855957031	1609.53271484375	974.9700317382812	329.8916320800781	1616.982177734375	1028.907592773438	384.5748596191406	1580.206665039062	839.3278198242188	520.321533203125	965.509765625	915.6363525390625	159.3055877685547	961.0521240234375	933.3301391601562	222.1888275146484	974.5597534179688	1058.578857421875	484.3041076660156	969.2045288085938	1032.618286132812	492.1789855957031	474.4884948730469	985.7308959960938	506.6982727050781	616.7590942382812	973.0963134765625	458.5009460449219	43.10573196411133	879.6526489257812	485.7821044921875	243.1018371582031	935.3367919921875	392.5045471191406	37.77664947509766	1094.994506835938	363.4776306152344	41.32048034667969	1012.329406738281	467.880859375	42.00205612182617	1006.094360351562	404.5488891601562	37.59964752197266	839.3633422851562	197.6954193115234	471.9956970214844	1007.25146484375	165.5513000488281	739.1329956054688	1022.708068847656	227.5378265380859	53.76053237915039	926.5728149414062	211.7005310058594	344.7358703613281	1009.339782714844	284.9916076660156	40.23097991943359	1108.316772460938	318.5967407226562	44.53155136108398	1033.800048828125	218.9930114746094	45.39860916137695	1011.631774902344	283.3945922851562	41.42882537841797	856.1294555664062	
381	3.8	273.0536499023438	980.8175048828125	839.469482421875	404.5604858398438	972.8737182617188	831.6319580078125	337.459228515625	1052.682495117188	833.0532836914062	339.169921875	1218.901611328125	1067.830078125	341.8930969238281	1156.210815429688	818.4198608398438	348.9200744628906	1406.986694335938	847.0056762695312	339.8390197753906	1334.133911132812	1006.653198242188	282.0071105957031	1260.944458007812	806.0183715820312	452.4045715332031	1370.042602539062	837.0682983398438	498.817138671875	1389.320678710938	924.7311401367188	570.809814453125	1273.856201171875	904.5341186523438	606.7576293945312	1081.810913085938	924.3961181640625	542.056640625	1052.654418945312	874.766357421875	595.9832763671875	907.7410888671875	1073.7412109375	653.2664184570312	881.1912231445312	1020.577697753906	627.2584228515625	988.6070556640625	959.4813842773438	616.823486328125	738.3619995117188	1129.904907226562	655.7897338867188	805.4599609375	1063.159912109375	626.5096435546875	823.3788452148438	1117.76318359375	190.0674591064453	1389.213134765625	901.0081787109375	134.2226715087891	1324.79638671875	883.07958984375	99.60208892822266	1063.733276367188	870.35888671875	194.2027435302734	1054.901977539062	864.6521606445312	105.0003433227539	852.3609008789062	1006.181274414062	53.06346130371094	839.4669189453125	953.8857421875	79.08528900146484	998.575439453125	892.1116333007812	100.9613494873047	677.785400390625	1005.595764160156	82.64397430419922	748.2760009765625	1021.909118652344	50.44892501831055	752.165771484375	959.9706420898438	248.8198394775391	1594.342163085938	926.5411376953125	439.6638793945312	1609.594604492188	976.8209838867188	329.8896789550781	1617.117065429688	1030.812377929688	384.5271301269531	1580.451782226562	841.194091796875	519.8154907226562	965.6538696289062	916.9658203125	158.5587005615234	961.2957763671875	934.2531127929688	221.4937133789062	974.7589721679688	1059.5908203125	483.5911560058594	969.0594482421875	1033.799926757812	492.1820678710938	474.6216430664062	985.2315063476562	506.4446716308594	616.876953125	973.0949096679688	458.5142517089844	43.09286499023438	879.6268920898438	485.8311767578125	243.2590637207031	934.9037475585938	392.5726013183594	37.83573913574219	1094.941650390625	363.6136779785156	41.42808151245117	1012.341918945312	467.9320068359375	41.97280120849609	1006.073608398438	404.54736328125	37.59346771240234	839.364990234375	196.7491760253906	472.0689086914062	1005.446044921875	163.8369750976562	739.7954711914062	1023.656799316406	227.3820495605469	53.61504364013672	926.4702758789062	211.0265197753906	344.8506164550781	1007.982116699219	284.9724731445312	40.2656364440918	1108.268310546875	318.5766296386719	44.59961700439453	1033.756591796875	218.8681793212891	45.43701171875	1011.545715332031	283.2600708007812	41.23971939086914	856.07470703125	
382	3.81	272.7073364257812	981.0164184570312	840.5811157226562	404.1328430175781	973.0020141601562	832.7290649414062	337.0789794921875	1053.031494140625	834.0675659179688	338.7665710449219	1218.897338867188	1069.132080078125	341.6397399902344	1156.507080078125	819.8793334960938	348.7831115722656	1407.286010742188	848.5406494140625	339.5979309082031	1334.19482421875	1008.087646484375	281.7144470214844	1261.29638671875	807.4222412109375	452.2446594238281	1370.248657226562	838.60546875	498.6500549316406	1389.332763671875	926.3067016601562	570.5543823242188	1273.833251953125	905.930419921875	605.9801635742188	1081.440795898438	925.158203125	541.3209228515625	1052.849731445312	875.2379760742188	594.1679077148438	904.7807006835938	1071.8603515625	651.3696899414062	878.7886962890625	1018.281066894531	625.9765625	987.4386596679688	959.1093139648438	613.1454467773438	734.1156005859375	1124.71337890625	653.0054321289062	802.1165771484375	1059.42236328125	623.7890014648438	819.2377319335938	1114.330078125	189.9392547607422	1389.637573242188	902.5076293945312	133.8851928710938	1325.334838867188	884.609619140625	98.37175750732422	1064.367309570312	872.196533203125	192.8657684326172	1055.204956054688	866.02685546875	103.9366683959961	853.986328125	1009.3037109375	51.65555953979492	840.7678833007812	957.559814453125	77.85012054443359	999.3106079101562	894.4165649414062	99.21893310546875	679.6848754882812	1010.671936035156	81.33570098876953	750.2680053710938	1026.328125	48.66993713378906	753.5963745117188	964.4747924804688	248.7864532470703	1594.577026367188	928.3616943359375	439.6289672851562	1609.602294921875	978.6405639648438	329.8602600097656	1617.180419921875	1032.665771484375	384.4837646484375	1580.6650390625	843.0084228515625	519.2794189453125	965.7506103515625	918.15771484375	157.8811798095703	961.437255859375	935.1386108398438	220.8683319091797	974.8636474609375	1060.586181640625	482.9483337402344	968.907958984375	1034.86865234375	492.2265625	474.7404479980469	984.7078857421875	506.209228515625	616.9636840820312	973.0265502929688	458.52587890625	43.07504272460938	879.5928344726562	485.9008483886719	243.3906402587891	934.45947265625	392.6367492675781	37.89630126953125	1094.882934570312	363.736572265625	41.51179504394531	1012.348083496094	467.9889831542969	41.9427604675293	1006.043395996094	404.5428466796875	37.57471084594727	839.3489990234375	195.8760986328125	472.1242370605469	1003.717895507812	162.537841796875	740.099853515625	1024.152587890625	227.2584533691406	53.48204803466797	926.3812255859375	210.4050903320312	344.9461059570312	1006.685424804688	284.9640502929688	40.29713439941406	1108.222290039062	318.5560913085938	44.63974380493164	1033.713745117188	218.7736511230469	45.46673202514648	1011.463928222656	283.1358032226562	41.05798721313477	856.0154418945312	
